# Hierarchical Translation and Rotation (.htr) file
# Generated by EVaRT
[Header]
FileType htr
DataType HTRS
FileVersion 1
NumSegments 23
NumFrames 5
DataFrameRate 120
EulerRotationOrder ZYX
CalibrationUnits mm
RotationUnits Degrees
GlobalAxisofGravity Y
BoneLengthAxis Y
ScaleFactor 1
[SegmentNames&Hierarchy]
#CHILD            PARENT
DaveRoot          GLOBAL
Spine1            DaveRoot
Spine2            Spine1
Spine3            Spine2
Spine4            Spine3
Neck              Spine4
Head              Neck
LClavicle         Spine4
LUpperArm         LClavicle
LLowerArm         LUpperArm
LHand             LLowerArm
RClavicle         Spine4
RUpperArm         RClavicle
RLowerArm         RUpperArm
RHand             RLowerArm
RUpperLeg         DaveRoot
RLowerLeg         RUpperLeg
RFoot             RLowerLeg
RToes             RFoot
LUpperLeg         DaveRoot
LLowerLeg         LUpperLeg
LFoot             LLowerLeg
LToes             LFoot
[BasePosition]
#SegmentName      Tx   Ty   Tz   Rx   Ry   Rz   BoneLength
DaveRoot          209.518790	1014.822220	-351.309218	15.931515	2.618173	-0.612188	100.000000
Spine1            0.000000	100.000000	0.000000	-16.793488	0.293500	-0.473802	100.000000
Spine2            0.000000	100.000000	0.000000	4.672625	0.349043	-0.357343	100.000000
Spine3            0.000000	100.000000	0.000000	10.998894	0.386292	-0.316706	100.000000
Spine4            0.000000	100.000000	0.000000	12.138707	1.462162	1.217268	100.000000
Neck              0.000000	100.000000	0.000000	12.810480	14.955418	1.620949	80.000000
Head              0.000000	80.000000	0.000000	-44.031424	-2.973179	-2.367844	200.000000
LClavicle         0.000000	100.000000	0.000000	-0.941684	-2.086145	-99.536471	200.000000
LUpperArm         0.000000	200.000000	0.000000	10.837043	12.737179	14.309854	300.000000
LLowerArm         0.000000	300.000000	0.000000	2.090205	2.175812	1.895763	200.000000
LHand             0.000000	200.000000	0.000000	-1.396534	-1.768569	8.793625	120.000000
RClavicle         0.000000	100.000000	0.000000	1.262055	-3.879913	108.124298	200.000000
RUpperArm         0.000000	200.000000	0.000000	10.866823	4.985308	-18.992585	300.000000
RLowerArm         0.000000	300.000000	0.000000	5.968673	-3.682026	-7.348670	200.000000
RHand             0.000000	200.000000	0.000000	-1.057110	-1.690862	-7.465634	120.000000
RUpperLeg         -115.911102	-10.000000	31.058285	24.909801	27.531946	-169.439912	530.000000
RLowerLeg         0.000000	530.000000	0.000000	-7.321572	0.479387	-2.520024	460.000000
RFoot             0.000000	460.000000	0.000000	82.352420	-1.863170	1.930421	130.000000
RToes             0.000000	130.000000	0.000000	17.737744	0.005479	-0.002881	100.000000
LUpperLeg         115.911102	-10.000000	31.058285	23.717246	9.590578	-171.144790	530.000000
LLowerLeg         0.000000	530.000000	0.000000	-5.150575	-3.275937	3.046484	460.000000
LFoot             0.000000	460.000000	0.000000	77.933010	-13.262104	9.769004	130.000000
LToes             0.000000	130.000000	0.000000	27.000770	-0.000000	-0.000086	100.000000
#Beginning of Data.
[DaveRoot]
#Fr	Tx	Ty	Tz	Rx	Ry	Rz	SF
1166	-1193.542154	43.117052	124.799613	-87.393123	67.563987	-141.047764	1.000000	
1167	-1178.716711	41.045728	129.201620	-90.431020	67.644413	-143.153149	1.000000	
1168	-1161.506987	39.175442	132.134428	-92.768253	67.694489	-144.701079	1.000000	
1169	-1146.206243	34.943845	136.406418	-96.277275	67.703856	-147.058267	1.000000	
1170	-1128.651387	30.872262	139.268702	-98.810396	67.642787	-148.651860	1.000000	
[Spine1]
#Fr	Tx	Ty	Tz	Rx	Ry	Rz	SF
1166	0.000000	0.000000	0.000000	6.538272	4.106757	0.518456	1.000000	
1167	0.000000	0.000000	0.000000	6.844710	3.555841	0.356452	1.000000	
1168	0.000000	0.000000	0.000000	6.881489	3.646316	0.458860	1.000000	
1169	0.000000	0.000000	0.000000	7.234235	3.093517	0.272116	1.000000	
1170	0.000000	0.000000	0.000000	7.224511	3.204553	0.382295	1.000000	
[Spine2]
#Fr	Tx	Ty	Tz	Rx	Ry	Rz	SF
1166	0.000000	0.000000	0.000000	6.538272	4.106757	0.518456	1.000000	
1167	0.000000	0.000000	0.000000	6.844710	3.555841	0.356452	1.000000	
1168	0.000000	0.000000	0.000000	6.881489	3.646316	0.458860	1.000000	
1169	0.000000	0.000000	0.000000	7.234235	3.093517	0.272116	1.000000	
1170	0.000000	0.000000	0.000000	7.224511	3.204553	0.382295	1.000000	
[Spine3]
#Fr	Tx	Ty	Tz	Rx	Ry	Rz	SF
1166	0.000000	0.000000	0.000000	6.538272	4.106757	0.518456	1.000000	
1167	0.000000	0.000000	0.000000	6.844710	3.555841	0.356452	1.000000	
1168	0.000000	0.000000	0.000000	6.881489	3.646316	0.458860	1.000000	
1169	0.000000	0.000000	0.000000	7.234235	3.093517	0.272116	1.000000	
1170	0.000000	0.000000	0.000000	7.224511	3.204553	0.382295	1.000000	
[Spine4]
#Fr	Tx	Ty	Tz	Rx	Ry	Rz	SF
1166	0.000000	0.000000	0.000000	6.538272	4.106757	0.518456	1.000000	
1167	0.000000	0.000000	0.000000	6.844710	3.555841	0.356452	1.000000	
1168	0.000000	0.000000	0.000000	6.881489	3.646316	0.458860	1.000000	
1169	0.000000	0.000000	0.000000	7.234235	3.093517	0.272116	1.000000	
1170	0.000000	0.000000	0.000000	7.224511	3.204553	0.382295	1.000000	
[Neck]
#Fr	Tx	Ty	Tz	Rx	Ry	Rz	SF
1166	0.000000	0.000000	0.000000	-0.272483	-10.115396	0.996842	1.000000	
1167	0.000000	0.000000	0.000000	-0.419248	-9.210198	1.275139	1.000000	
1168	0.000000	0.000000	0.000000	0.242086	-9.708275	1.876269	1.000000	
1169	0.000000	0.000000	0.000000	0.042094	-8.799875	2.123594	1.000000	
1170	0.000000	0.000000	0.000000	0.883881	-9.333370	2.730455	1.000000	
[Head]
#Fr	Tx	Ty	Tz	Rx	Ry	Rz	SF
1166	0.000000	0.000000	0.000000	-0.272483	-10.115396	0.996842	1.000000	
1167	0.000000	0.000000	0.000000	-0.419248	-9.210198	1.275139	1.000000	
1168	0.000000	0.000000	0.000000	0.242086	-9.708275	1.876269	1.000000	
1169	0.000000	0.000000	0.000000	0.042094	-8.799875	2.123594	1.000000	
1170	0.000000	0.000000	0.000000	0.883881	-9.333370	2.730455	1.000000	
[LClavicle]
#Fr	Tx	Ty	Tz	Rx	Ry	Rz	SF
1166	0.000000	0.000000	0.000000	10.741023	1.551379	-13.040342	1.000000	
1167	0.000000	0.000000	0.000000	6.320383	0.674712	-10.986511	1.000000	
1168	0.000000	0.000000	0.000000	10.450698	1.455868	-12.760709	1.000000	
1169	0.000000	0.000000	0.000000	5.786565	0.596782	-10.786088	1.000000	
1170	0.000000	0.000000	0.000000	10.091193	1.339286	-12.399759	1.000000	
[LUpperArm]
#Fr	Tx	Ty	Tz	Rx	Ry	Rz	SF
1166	0.000000	0.000000	0.000000	12.254606	3.895005	-56.963541	1.000000	
1167	0.000000	0.000000	0.000000	26.795035	9.901993	-56.485516	1.000000	
1168	0.000000	0.000000	0.000000	12.217304	2.538764	-56.825924	1.000000	
1169	0.000000	0.000000	0.000000	26.959858	8.835437	-56.117626	1.000000	
1170	0.000000	0.000000	0.000000	12.161139	1.176893	-56.826368	1.000000	
[LLowerArm]
#Fr	Tx	Ty	Tz	Rx	Ry	Rz	SF
1166	0.000000	0.000000	0.000000	24.640516	-0.000000	0.000000	1.000000	
1167	0.000000	0.000000	0.000000	-5.177625	-0.000000	0.000000	1.000000	
1168	0.000000	0.000000	0.000000	24.358037	-0.000000	0.000000	1.000000	
1169	0.000000	0.000000	0.000000	-5.506744	-0.000000	0.000000	1.000000	
1170	0.000000	0.000000	0.000000	23.879650	-0.000000	0.000000	1.000000	
[LHand]
#Fr	Tx	Ty	Tz	Rx	Ry	Rz	SF
1166	0.000000	0.000000	0.000000	-5.601988	0.000000	-0.000000	1.000000	
1167	0.000000	0.000000	0.000000	17.107058	0.000000	-0.000000	1.000000	
1168	0.000000	0.000000	0.000000	-5.851340	0.000000	-0.000000	1.000000	
1169	0.000000	0.000000	0.000000	16.731748	0.000000	-0.000000	1.000000	
1170	0.000000	0.000000	0.000000	-6.060043	0.000000	-0.000000	1.000000	
[RClavicle]
#Fr	Tx	Ty	Tz	Rx	Ry	Rz	SF
1166	0.000000	0.000000	0.000000	1.735314	0.173907	-6.046378	1.000000	
1167	0.000000	0.000000	0.000000	3.764482	0.411548	-6.555316	1.000000	
1168	0.000000	0.000000	0.000000	2.216872	0.196464	-5.387181	1.000000	
1169	0.000000	0.000000	0.000000	4.175303	0.403483	-5.835171	1.000000	
1170	0.000000	0.000000	0.000000	2.815875	0.214359	-4.675002	1.000000	
[RUpperArm]
#Fr	Tx	Ty	Tz	Rx	Ry	Rz	SF
1166	0.000000	0.000000	0.000000	39.558735	0.988518	20.439989	1.000000	
1167	0.000000	0.000000	0.000000	33.111206	12.380427	30.101862	1.000000	
1168	0.000000	0.000000	0.000000	39.198771	1.217403	20.930349	1.000000	
1169	0.000000	0.000000	0.000000	33.122500	12.028883	30.273201	1.000000	
1170	0.000000	0.000000	0.000000	38.559166	0.645469	20.987501	1.000000	
[RLowerArm]
#Fr	Tx	Ty	Tz	Rx	Ry	Rz	SF
1166	0.000000	0.000000	0.000000	-2.983737	-0.000000	-0.000000	1.000000	
1167	0.000000	0.000000	0.000000	28.592477	-0.000000	-0.000000	1.000000	
1168	0.000000	0.000000	0.000000	-1.834538	-0.000000	-0.000000	1.000000	
1169	0.000000	0.000000	0.000000	28.487076	-0.000000	-0.000000	1.000000	
1170	0.000000	0.000000	0.000000	-0.883291	-0.000000	-0.000000	1.000000	
[RHand]
#Fr	Tx	Ty	Tz	Rx	Ry	Rz	SF
1166	0.000000	0.000000	0.000000	25.203632	10.145554	4.368088	1.000000	
1167	0.000000	0.000000	0.000000	-17.726473	10.674250	3.408520	1.000000	
1168	0.000000	0.000000	0.000000	25.073446	10.547329	4.361757	1.000000	
1169	0.000000	0.000000	0.000000	-16.929630	11.003066	3.274175	1.000000	
1170	0.000000	0.000000	0.000000	24.820348	10.962828	4.357856	1.000000	
[RUpperLeg]
#Fr	Tx	Ty	Tz	Rx	Ry	Rz	SF
1166	0.000000	0.000000	0.000000	44.728115	-16.170528	13.166409	1.000000	
1167	0.000000	0.000000	0.000000	44.016063	-15.878840	12.026031	1.000000	
1168	0.000000	0.000000	0.000000	43.026137	-15.696300	10.984498	1.000000	
1169	0.000000	0.000000	0.000000	42.165570	-15.371194	9.618133	1.000000	
1170	0.000000	0.000000	0.000000	41.185468	-15.135587	8.557267	1.000000	
[RLowerLeg]
#Fr	Tx	Ty	Tz	Rx	Ry	Rz	SF
1166	0.000000	0.000000	0.000000	-22.462454	-0.000000	-0.000000	1.000000	
1167	0.000000	0.000000	0.000000	-18.479817	0.000000	-0.000000	1.000000	
1168	0.000000	0.000000	0.000000	-14.312818	-0.000000	-0.000000	1.000000	
1169	0.000000	0.000000	0.000000	-11.200682	-0.000000	-0.000000	1.000000	
1170	0.000000	0.000000	0.000000	-8.463585	-0.000000	-0.000000	1.000000	
[RFoot]
#Fr	Tx	Ty	Tz	Rx	Ry	Rz	SF
1166	0.000000	0.000000	0.000000	0.962924	-7.361862	-14.045681	1.000000	
1167	0.000000	0.000000	0.000000	-1.218616	-6.709747	-12.787892	1.000000	
1168	0.000000	0.000000	0.000000	-3.889453	-5.698775	-11.347076	1.000000	
1169	0.000000	0.000000	0.000000	-6.361959	-4.568410	-10.295356	1.000000	
1170	0.000000	0.000000	0.000000	-8.717814	-3.314177	-9.312399	1.000000	
[RToes]
#Fr	Tx	Ty	Tz	Rx	Ry	Rz	SF
1166	0.000000	0.000000	0.000000	-1.398538	-0.000000	0.000000	1.000000	
1167	0.000000	0.000000	0.000000	-1.884469	0.000000	0.000000	1.000000	
1168	0.000000	0.000000	0.000000	-2.533211	0.000000	0.000000	1.000000	
1169	0.000000	0.000000	0.000000	-3.122508	0.000000	0.000000	1.000000	
1170	0.000000	0.000000	0.000000	-3.771599	-0.000000	0.000000	1.000000	
[LUpperLeg]
#Fr	Tx	Ty	Tz	Rx	Ry	Rz	SF
1166	0.000000	0.000000	0.000000	14.108231	3.220430	8.151379	1.000000	
1167	0.000000	0.000000	0.000000	14.071070	3.172835	8.045639	1.000000	
1168	0.000000	0.000000	0.000000	13.666802	3.701027	8.078520	1.000000	
1169	0.000000	0.000000	0.000000	13.550500	4.151861	7.987954	1.000000	
1170	0.000000	0.000000	0.000000	13.077164	4.819225	7.993946	1.000000	
[LLowerLeg]
#Fr	Tx	Ty	Tz	Rx	Ry	Rz	SF
1166	0.000000	0.000000	0.000000	-13.525092	0.000000	0.000000	1.000000	
1167	0.000000	0.000000	0.000000	-15.961503	0.000000	0.000000	1.000000	
1168	0.000000	0.000000	0.000000	-17.668886	0.000000	0.000000	1.000000	
1169	0.000000	0.000000	0.000000	-20.471903	0.000000	0.000000	1.000000	
1170	0.000000	0.000000	0.000000	-22.393228	0.000000	0.000000	1.000000	
[LFoot]
#Fr	Tx	Ty	Tz	Rx	Ry	Rz	SF
1166	0.000000	0.000000	0.000000	-31.081268	-24.174131	-0.719973	1.000000	
1167	0.000000	0.000000	0.000000	-30.497062	-27.226141	-1.446740	1.000000	
1168	0.000000	0.000000	0.000000	-30.478922	-32.436105	-0.081071	1.000000	
1169	0.000000	0.000000	0.000000	-30.093006	-40.456052	2.404282	1.000000	
1170	0.000000	0.000000	0.000000	-30.335641	-44.042756	4.170561	1.000000	
[LToes]
#Fr	Tx	Ty	Tz	Rx	Ry	Rz	SF
1166	0.000000	0.000000	0.000000	-9.755786	-0.000000	-0.000000	1.000000	
1167	0.000000	0.000000	0.000000	-14.672822	-0.000000	-0.000000	1.000000	
1168	0.000000	0.000000	0.000000	-21.268481	-0.000000	-0.000000	1.000000	
1169	0.000000	0.000000	0.000000	-30.544751	-0.000000	-0.000000	1.000000	
1170	0.000000	0.000000	0.000000	-35.690068	-0.000000	-0.000000	1.000000	
